<mxfile host="app.diagrams.net" modified="2024-03-01T13:05:38.300Z" agent="Mozilla/5.0 (Windows NT 10.0; Win64; x64) AppleWebKit/537.36 (KHTML, like Gecko) Chrome/122.0.0.0 Safari/537.36 Edg/122.0.0.0" etag="CZRJmAsriCp_YU2Vymma" version="24.0.0" type="device">
  <diagram id="C5RBs43oDa-KdzZeNtuy" name="Page-1">
    <mxGraphModel dx="1010" dy="691" grid="1" gridSize="10" guides="1" tooltips="1" connect="1" arrows="1" fold="1" page="1" pageScale="1" pageWidth="827" pageHeight="1169" math="0" shadow="0">
      <root>
        <mxCell id="WIyWlLk6GJQsqaUBKTNV-0" />
        <mxCell id="WIyWlLk6GJQsqaUBKTNV-1" parent="WIyWlLk6GJQsqaUBKTNV-0" />
        <mxCell id="w1wDxTQknE0ReWHpi_DZ-0" value="Camera" style="html=1;whiteSpace=wrap;" vertex="1" parent="WIyWlLk6GJQsqaUBKTNV-1">
          <mxGeometry x="140" y="160" width="110" height="50" as="geometry" />
        </mxCell>
        <mxCell id="w1wDxTQknE0ReWHpi_DZ-5" style="edgeStyle=orthogonalEdgeStyle;rounded=0;orthogonalLoop=1;jettySize=auto;html=1;" edge="1" parent="WIyWlLk6GJQsqaUBKTNV-1" source="w1wDxTQknE0ReWHpi_DZ-1" target="w1wDxTQknE0ReWHpi_DZ-0">
          <mxGeometry relative="1" as="geometry" />
        </mxCell>
        <mxCell id="w1wDxTQknE0ReWHpi_DZ-6" style="edgeStyle=orthogonalEdgeStyle;rounded=0;orthogonalLoop=1;jettySize=auto;html=1;" edge="1" parent="WIyWlLk6GJQsqaUBKTNV-1" source="w1wDxTQknE0ReWHpi_DZ-1" target="w1wDxTQknE0ReWHpi_DZ-2">
          <mxGeometry relative="1" as="geometry" />
        </mxCell>
        <mxCell id="w1wDxTQknE0ReWHpi_DZ-1" value="Movie" style="html=1;whiteSpace=wrap;" vertex="1" parent="WIyWlLk6GJQsqaUBKTNV-1">
          <mxGeometry x="330" y="160" width="110" height="50" as="geometry" />
        </mxCell>
        <mxCell id="w1wDxTQknE0ReWHpi_DZ-2" value="MovieFile" style="html=1;whiteSpace=wrap;" vertex="1" parent="WIyWlLk6GJQsqaUBKTNV-1">
          <mxGeometry x="530" y="160" width="110" height="50" as="geometry" />
        </mxCell>
        <mxCell id="w1wDxTQknE0ReWHpi_DZ-7" style="edgeStyle=orthogonalEdgeStyle;rounded=0;orthogonalLoop=1;jettySize=auto;html=1;entryX=0.75;entryY=1;entryDx=0;entryDy=0;" edge="1" parent="WIyWlLk6GJQsqaUBKTNV-1" source="w1wDxTQknE0ReWHpi_DZ-3" target="w1wDxTQknE0ReWHpi_DZ-1">
          <mxGeometry relative="1" as="geometry" />
        </mxCell>
        <mxCell id="w1wDxTQknE0ReWHpi_DZ-19" style="edgeStyle=orthogonalEdgeStyle;rounded=0;orthogonalLoop=1;jettySize=auto;html=1;entryX=0;entryY=0.5;entryDx=0;entryDy=0;" edge="1" parent="WIyWlLk6GJQsqaUBKTNV-1" source="w1wDxTQknE0ReWHpi_DZ-3" target="w1wDxTQknE0ReWHpi_DZ-12">
          <mxGeometry relative="1" as="geometry" />
        </mxCell>
        <mxCell id="w1wDxTQknE0ReWHpi_DZ-26" style="edgeStyle=orthogonalEdgeStyle;rounded=0;orthogonalLoop=1;jettySize=auto;html=1;exitX=1;exitY=0.5;exitDx=0;exitDy=0;entryX=0;entryY=0.5;entryDx=0;entryDy=0;" edge="1" parent="WIyWlLk6GJQsqaUBKTNV-1" source="w1wDxTQknE0ReWHpi_DZ-3" target="w1wDxTQknE0ReWHpi_DZ-24">
          <mxGeometry relative="1" as="geometry" />
        </mxCell>
        <mxCell id="w1wDxTQknE0ReWHpi_DZ-3" value="ProcCondition" style="html=1;whiteSpace=wrap;" vertex="1" parent="WIyWlLk6GJQsqaUBKTNV-1">
          <mxGeometry x="510" y="330" width="110" height="50" as="geometry" />
        </mxCell>
        <mxCell id="w1wDxTQknE0ReWHpi_DZ-8" style="edgeStyle=orthogonalEdgeStyle;rounded=0;orthogonalLoop=1;jettySize=auto;html=1;entryX=0.5;entryY=1;entryDx=0;entryDy=0;" edge="1" parent="WIyWlLk6GJQsqaUBKTNV-1" source="w1wDxTQknE0ReWHpi_DZ-4" target="w1wDxTQknE0ReWHpi_DZ-1">
          <mxGeometry relative="1" as="geometry" />
        </mxCell>
        <mxCell id="w1wDxTQknE0ReWHpi_DZ-9" style="edgeStyle=orthogonalEdgeStyle;rounded=0;orthogonalLoop=1;jettySize=auto;html=1;entryX=0.5;entryY=1;entryDx=0;entryDy=0;" edge="1" parent="WIyWlLk6GJQsqaUBKTNV-1" source="w1wDxTQknE0ReWHpi_DZ-4" target="w1wDxTQknE0ReWHpi_DZ-3">
          <mxGeometry relative="1" as="geometry" />
        </mxCell>
        <mxCell id="w1wDxTQknE0ReWHpi_DZ-4" value="GIFFile" style="html=1;whiteSpace=wrap;" vertex="1" parent="WIyWlLk6GJQsqaUBKTNV-1">
          <mxGeometry x="330" y="400" width="110" height="50" as="geometry" />
        </mxCell>
        <mxCell id="w1wDxTQknE0ReWHpi_DZ-15" style="edgeStyle=orthogonalEdgeStyle;rounded=0;orthogonalLoop=1;jettySize=auto;html=1;entryX=1;entryY=0.5;entryDx=0;entryDy=0;" edge="1" parent="WIyWlLk6GJQsqaUBKTNV-1" source="w1wDxTQknE0ReWHpi_DZ-10" target="w1wDxTQknE0ReWHpi_DZ-2">
          <mxGeometry relative="1" as="geometry" />
        </mxCell>
        <mxCell id="w1wDxTQknE0ReWHpi_DZ-10" value="Player" style="html=1;whiteSpace=wrap;" vertex="1" parent="WIyWlLk6GJQsqaUBKTNV-1">
          <mxGeometry x="740" y="160" width="110" height="50" as="geometry" />
        </mxCell>
        <mxCell id="w1wDxTQknE0ReWHpi_DZ-18" style="edgeStyle=orthogonalEdgeStyle;rounded=0;orthogonalLoop=1;jettySize=auto;html=1;exitX=0.5;exitY=0;exitDx=0;exitDy=0;entryX=0.5;entryY=1;entryDx=0;entryDy=0;endArrow=diamondThin;endFill=1;" edge="1" parent="WIyWlLk6GJQsqaUBKTNV-1" source="w1wDxTQknE0ReWHpi_DZ-11" target="w1wDxTQknE0ReWHpi_DZ-10">
          <mxGeometry relative="1" as="geometry" />
        </mxCell>
        <mxCell id="w1wDxTQknE0ReWHpi_DZ-11" value="SeekBar" style="html=1;whiteSpace=wrap;" vertex="1" parent="WIyWlLk6GJQsqaUBKTNV-1">
          <mxGeometry x="740" y="330" width="110" height="50" as="geometry" />
        </mxCell>
        <mxCell id="w1wDxTQknE0ReWHpi_DZ-14" style="edgeStyle=orthogonalEdgeStyle;rounded=0;orthogonalLoop=1;jettySize=auto;html=1;entryX=0.5;entryY=1;entryDx=0;entryDy=0;" edge="1" parent="WIyWlLk6GJQsqaUBKTNV-1" source="w1wDxTQknE0ReWHpi_DZ-12" target="w1wDxTQknE0ReWHpi_DZ-11">
          <mxGeometry relative="1" as="geometry" />
        </mxCell>
        <mxCell id="w1wDxTQknE0ReWHpi_DZ-12" value="TimeRange" style="html=1;whiteSpace=wrap;" vertex="1" parent="WIyWlLk6GJQsqaUBKTNV-1">
          <mxGeometry x="740" y="480" width="110" height="50" as="geometry" />
        </mxCell>
        <mxCell id="w1wDxTQknE0ReWHpi_DZ-21" style="edgeStyle=orthogonalEdgeStyle;rounded=0;orthogonalLoop=1;jettySize=auto;html=1;exitX=0.5;exitY=1;exitDx=0;exitDy=0;entryX=1;entryY=0.5;entryDx=0;entryDy=0;" edge="1" parent="WIyWlLk6GJQsqaUBKTNV-1" source="w1wDxTQknE0ReWHpi_DZ-20" target="w1wDxTQknE0ReWHpi_DZ-11">
          <mxGeometry relative="1" as="geometry" />
        </mxCell>
        <mxCell id="w1wDxTQknE0ReWHpi_DZ-23" style="edgeStyle=orthogonalEdgeStyle;rounded=0;orthogonalLoop=1;jettySize=auto;html=1;exitX=0.5;exitY=0;exitDx=0;exitDy=0;entryX=1;entryY=0.5;entryDx=0;entryDy=0;endArrow=diamondThin;endFill=1;" edge="1" parent="WIyWlLk6GJQsqaUBKTNV-1" source="w1wDxTQknE0ReWHpi_DZ-20" target="w1wDxTQknE0ReWHpi_DZ-10">
          <mxGeometry relative="1" as="geometry" />
        </mxCell>
        <mxCell id="w1wDxTQknE0ReWHpi_DZ-20" value="Thumbnail" style="html=1;whiteSpace=wrap;" vertex="1" parent="WIyWlLk6GJQsqaUBKTNV-1">
          <mxGeometry x="890" y="240" width="110" height="50" as="geometry" />
        </mxCell>
        <mxCell id="w1wDxTQknE0ReWHpi_DZ-27" style="edgeStyle=orthogonalEdgeStyle;rounded=0;orthogonalLoop=1;jettySize=auto;html=1;exitX=1;exitY=0.5;exitDx=0;exitDy=0;entryX=1;entryY=0.5;entryDx=0;entryDy=0;" edge="1" parent="WIyWlLk6GJQsqaUBKTNV-1" source="w1wDxTQknE0ReWHpi_DZ-24" target="w1wDxTQknE0ReWHpi_DZ-20">
          <mxGeometry relative="1" as="geometry" />
        </mxCell>
        <mxCell id="w1wDxTQknE0ReWHpi_DZ-24" value="CropArea" style="html=1;whiteSpace=wrap;" vertex="1" parent="WIyWlLk6GJQsqaUBKTNV-1">
          <mxGeometry x="740" y="600" width="110" height="50" as="geometry" />
        </mxCell>
      </root>
    </mxGraphModel>
  </diagram>
</mxfile>
